<svg width="110" height="110" viewBox="0 0 110 110" fill="none" xmlns="http://www.w3.org/2000/svg">
<path d="M89.375 6.875H103.125V20.625H89.375V6.875Z" fill="#2E6ECC"/>
<path d="M89.375 27.5H103.125V41.25H89.375V27.5Z" fill="#2E6ECC"/>
<path d="M68.75 6.875H82.5V20.625H68.75V6.875Z" fill="#2E6ECC"/>
<path d="M68.75 27.5H82.5V41.25H68.75V27.5Z" fill="#2E6ECC"/>
<path d="M96.25 55V75.625H13.75V20.625H55V13.75H13.75C11.9266 13.75 10.178 14.4743 8.88864 15.7636C7.59933 17.053 6.875 18.8016 6.875 20.625V75.625C6.875 77.4484 7.59933 79.197 8.88864 80.4864C10.178 81.7757 11.9266 82.5 13.75 82.5H41.25V96.25H27.5V103.125H82.5V96.25H68.75V82.5H96.25C98.0734 82.5 99.822 81.7757 101.111 80.4864C102.401 79.197 103.125 77.4484 103.125 75.625V55H96.25ZM61.875 96.25H48.125V82.5H61.875V96.25Z" fill="#2E6ECC"/>
</svg>
