<svg width="90" height="90" viewBox="0 0 90 90" fill="none" xmlns="http://www.w3.org/2000/svg">
<path d="M45 0C33.0653 0 21.6193 4.74106 13.1802 13.1802C4.74106 21.6193 0 33.0653 0 45C0 56.9347 4.74106 68.3807 13.1802 76.8198C21.6193 85.2589 33.0653 90 45 90C56.9347 90 68.3807 85.2589 76.8198 76.8198C85.2589 68.3807 90 56.9347 90 45C90 33.0653 85.2589 21.6193 76.8198 13.1802C68.3807 4.74106 56.9347 0 45 0V0ZM5.55 48.4H18.1C18.3 52.95 18.935 57.47 20 61.9H9.2C7.18603 57.6544 5.94979 53.082 5.55 48.4V48.4ZM48.4 21.4V5.95C53.2184 7.78112 57.1778 11.3481 59.5 15.95C60.525 17.685 61.43 19.49 62.2 21.35L48.4 21.4V21.4ZM64.5 28.15C65.66 32.565 66.35 37.09 66.55 41.65H48.4V28.15H64.5V28.15ZM41.6 5.95V21.4H27.8C28.5713 19.5385 29.4736 17.734 30.5 16C32.8123 11.3793 36.773 7.7933 41.6 5.95V5.95ZM41.6 28.15V41.65H23.5C23.7 37.09 24.39 32.565 25.55 28.15H41.6V28.15ZM18.1 41.6H5.55C5.94979 36.918 7.18603 32.3456 9.2 28.1H20C18.933 32.5282 18.2967 37.0493 18.1 41.6V41.6ZM23.5 48.4H41.6V61.9H25.55C24.3902 57.4854 23.703 52.9599 23.5 48.4V48.4ZM41.65 68.4V83.85C36.8316 82.0189 32.8722 78.4519 30.55 73.85C29.5236 72.116 28.6213 70.3115 27.85 68.45L41.65 68.4V68.4ZM48.4 83.85V68.65H62.2C61.4287 70.5115 60.5264 72.316 59.5 74.05C57.1778 78.6519 53.2184 82.2189 48.4 84.05V83.85V83.85ZM48.4 61.65V48.15H66.5C66.297 52.7099 65.6098 57.2354 64.45 61.65H48.4ZM71.95 48.15H84.5C84.1002 52.832 82.864 57.4044 80.85 61.65H70C71.05 57.3 71.685 52.865 71.9 48.4L71.95 48.15V48.15ZM71.95 41.4C71.721 36.9315 71.0681 32.495 70 28.15H80.8C82.815 32.4 84.05 36.97 84.45 41.65L71.95 41.4ZM76.95 21.4H68C66.3806 16.8515 64.0334 12.5961 61.05 8.8C67.2719 11.5929 72.6764 15.9303 76.75 21.4H76.95V21.4ZM28.95 8.8C25.9666 12.5961 23.6194 16.8515 22 21.4H13.25C17.3236 15.9303 22.7281 11.5929 28.95 8.8V8.8ZM13.2 68.8H22C23.6194 73.3485 25.9666 77.6039 28.95 81.4C22.7109 78.5651 17.3047 74.1747 13.25 68.65L13.2 68.8V68.8ZM61 81.4C63.9834 77.6039 66.3306 73.3485 67.95 68.8H76.75C72.6515 74.1965 67.2492 78.4633 61.05 81.2L61 81.4Z" fill="#2E6ECC"/>
</svg>
