<svg width="86" height="87" viewBox="0 0 86 87" fill="none" xmlns="http://www.w3.org/2000/svg">
<g filter="url(#filter0_d_31_41)">
<path d="M55 40.0001C55 43.1827 53.7357 46.2349 51.4853 48.4854C49.2349 50.7358 46.1826 52.0001 43 52.0001C39.8174 52.0001 36.7652 50.7358 34.5147 48.4854C32.2643 46.2349 31 43.1827 31 40.0001C31 39.3161 31.072 38.6481 31.196 38.0001H27V53.9881C27 55.1001 27.9 56.0001 29.012 56.0001H56.992C57.5249 55.999 58.0357 55.7866 58.4121 55.4094C58.7886 55.0322 59 54.521 59 53.9881V38.0001H54.804C54.928 38.6481 55 39.3161 55 40.0001ZM43 48.0001C44.0508 47.9998 45.0913 47.7926 46.0621 47.3902C47.0328 46.9878 47.9148 46.3982 48.6577 45.655C49.4006 44.9117 49.9898 44.0294 50.3917 43.0585C50.7936 42.0875 51.0003 41.0469 51 39.9961C50.9997 38.9453 50.7925 37.9048 50.3901 36.934C49.9877 35.9633 49.3981 35.0813 48.6549 34.3384C47.9116 33.5955 47.0293 33.0063 46.0584 32.6044C45.0874 32.2026 44.0468 31.9958 42.996 31.9961C40.8737 31.9966 38.8386 32.8402 37.3383 34.3412C35.838 35.8423 34.9955 37.8778 34.996 40.0001C34.9965 42.1224 35.8401 44.1575 37.3412 45.6578C38.8422 47.1581 40.8777 48.0006 43 48.0001ZM52.6 31.6001H57.396C57.7146 31.6001 58.0203 31.4738 58.246 31.2489C58.4716 31.0239 58.5989 30.7187 58.6 30.4001V25.6041C58.6 25.2848 58.4732 24.9785 58.2474 24.7527C58.0216 24.5269 57.7153 24.4001 57.396 24.4001H52.6C52.2807 24.4001 51.9744 24.5269 51.7486 24.7527C51.5229 24.9785 51.396 25.2848 51.396 25.6041V30.4001C51.4 31.0601 51.94 31.6001 52.6 31.6001ZM43 1.6001C32.8157 1.6001 23.0485 5.6458 15.8471 12.8472C8.64571 20.0486 4.60001 29.8158 4.60001 40.0001C4.60001 50.1844 8.64571 59.9516 15.8471 67.153C23.0485 74.3544 32.8157 78.4001 43 78.4001C48.0428 78.4001 53.0362 77.4069 57.6951 75.4771C62.354 73.5473 66.5871 70.7188 70.1529 67.153C73.7187 63.5872 76.5472 59.354 78.477 54.6951C80.4068 50.0362 81.4 45.0429 81.4 40.0001C81.4 34.9573 80.4068 29.964 78.477 25.3051C76.5472 20.6462 73.7187 16.413 70.1529 12.8472C66.5871 9.28143 62.354 6.4529 57.6951 4.52312C53.0362 2.59334 48.0428 1.6001 43 1.6001ZM63 55.5561C63 58.0001 61 60.0001 58.556 60.0001H27.444C25 60.0001 23 58.0001 23 55.5561V24.4441C23 22.0001 25 20.0001 27.444 20.0001H58.556C61 20.0001 63 22.0001 63 24.4441V55.5561Z" fill="#2E6ECC"/>
</g>
<defs>
<filter id="filter0_d_31_41" x="-1" y="0" width="88" height="88" filterUnits="userSpaceOnUse" color-interpolation-filters="sRGB">
<feFlood flood-opacity="0" result="BackgroundImageFix"/>
<feColorMatrix in="SourceAlpha" type="matrix" values="0 0 0 0 0 0 0 0 0 0 0 0 0 0 0 0 0 0 127 0" result="hardAlpha"/>
<feOffset dy="4"/>
<feGaussianBlur stdDeviation="2"/>
<feComposite in2="hardAlpha" operator="out"/>
<feColorMatrix type="matrix" values="0 0 0 0 0 0 0 0 0 0 0 0 0 0 0 0 0 0 0.25 0"/>
<feBlend mode="normal" in2="BackgroundImageFix" result="effect1_dropShadow_31_41"/>
<feBlend mode="normal" in="SourceGraphic" in2="effect1_dropShadow_31_41" result="shape"/>
</filter>
</defs>
</svg>
