<svg width="86" height="87" viewBox="0 0 86 87" fill="none" xmlns="http://www.w3.org/2000/svg">
<g filter="url(#filter0_d_31_39)">
<path d="M49.412 39.3321L40.428 35.1401C39.644 34.7761 39 35.1841 39 36.0521V43.9481C39 44.8161 39.644 45.2241 40.428 44.8601L49.408 40.6681C50.196 40.3001 50.196 39.7001 49.412 39.3321ZM43 1.6001C21.792 1.6001 4.60001 18.7921 4.60001 40.0001C4.60001 61.2081 21.792 78.4001 43 78.4001C64.208 78.4001 81.4 61.2081 81.4 40.0001C81.4 18.7921 64.208 1.6001 43 1.6001ZM43 55.6001C23.344 55.6001 23 53.8281 23 40.0001C23 26.1721 23.344 24.4001 43 24.4001C62.656 24.4001 63 26.1721 63 40.0001C63 53.8281 62.656 55.6001 43 55.6001Z" fill="#2E6ECC"/>
</g>
<defs>
<filter id="filter0_d_31_39" x="-1" y="0" width="88" height="88" filterUnits="userSpaceOnUse" color-interpolation-filters="sRGB">
<feFlood flood-opacity="0" result="BackgroundImageFix"/>
<feColorMatrix in="SourceAlpha" type="matrix" values="0 0 0 0 0 0 0 0 0 0 0 0 0 0 0 0 0 0 127 0" result="hardAlpha"/>
<feOffset dy="4"/>
<feGaussianBlur stdDeviation="2"/>
<feComposite in2="hardAlpha" operator="out"/>
<feColorMatrix type="matrix" values="0 0 0 0 0 0 0 0 0 0 0 0 0 0 0 0 0 0 0.25 0"/>
<feBlend mode="normal" in2="BackgroundImageFix" result="effect1_dropShadow_31_39"/>
<feBlend mode="normal" in="SourceGraphic" in2="effect1_dropShadow_31_39" result="shape"/>
</filter>
</defs>
</svg>
