<svg width="86" height="87" viewBox="0 0 86 87" fill="none" xmlns="http://www.w3.org/2000/svg">
<g filter="url(#filter0_d_31_35)">
<path d="M43 1.6001C21.792 1.6001 4.60001 18.7921 4.60001 40.0001C4.60001 61.2081 21.792 78.4001 43 78.4001C64.208 78.4001 81.4 61.2081 81.4 40.0001C81.4 18.7921 64.208 1.6001 43 1.6001ZM57.768 44.9241C57.768 44.9241 61.164 48.2761 62 49.8321C62.024 49.8641 62.036 49.8961 62.044 49.9121C62.384 50.4841 62.464 50.9281 62.296 51.2601C62.016 51.8121 61.056 52.0841 60.728 52.1081H54.728C54.312 52.1081 53.44 52.0001 52.384 51.2721C51.572 50.7041 50.772 49.7721 49.992 48.8641C48.828 47.5121 47.82 46.3441 46.804 46.3441C46.675 46.3439 46.5467 46.3641 46.424 46.4041C45.656 46.6521 44.672 47.7481 44.672 50.6681C44.672 51.5801 43.952 52.1041 43.444 52.1041H40.696C39.76 52.1041 34.884 51.7761 30.564 47.2201C25.276 41.6401 20.516 30.4481 20.476 30.3441C20.176 29.6201 20.796 29.2321 21.472 29.2321H27.532C28.34 29.2321 28.604 29.7241 28.788 30.1601C29.004 30.6681 29.796 32.6881 31.096 34.9601C33.204 38.6641 34.496 40.1681 35.532 40.1681C35.7263 40.1658 35.9171 40.1164 36.088 40.0241C37.44 39.2721 37.188 34.4521 37.128 33.4521C37.128 33.2641 37.124 31.2961 36.432 30.3521C35.936 29.6681 35.092 29.4081 34.58 29.3121C34.7872 29.0261 35.0603 28.7943 35.376 28.6361C36.304 28.1721 37.976 28.1041 39.636 28.1041H40.56C42.36 28.1281 42.824 28.2441 43.476 28.4081C44.796 28.7241 44.824 29.5761 44.708 32.4921C44.672 33.3201 44.636 34.2561 44.636 35.3601C44.636 35.6001 44.624 35.8561 44.624 36.1281C44.584 37.6121 44.536 39.2961 45.584 39.9881C45.7207 40.0738 45.8787 40.1195 46.04 40.1201C46.404 40.1201 47.5 40.1201 50.468 35.0281C51.3834 33.3891 52.1788 31.686 52.848 29.9321C52.908 29.8281 53.084 29.5081 53.292 29.3841C53.4455 29.3058 53.6157 29.266 53.788 29.2681H60.912C61.688 29.2681 62.22 29.3841 62.32 29.6841C62.496 30.1601 62.288 31.6121 59.036 36.0161L57.584 37.9321C54.636 41.7961 54.636 41.9921 57.768 44.9241Z" fill="#2E6ECC"/>
</g>
<defs>
<filter id="filter0_d_31_35" x="-1" y="0" width="88" height="88" filterUnits="userSpaceOnUse" color-interpolation-filters="sRGB">
<feFlood flood-opacity="0" result="BackgroundImageFix"/>
<feColorMatrix in="SourceAlpha" type="matrix" values="0 0 0 0 0 0 0 0 0 0 0 0 0 0 0 0 0 0 127 0" result="hardAlpha"/>
<feOffset dy="4"/>
<feGaussianBlur stdDeviation="2"/>
<feComposite in2="hardAlpha" operator="out"/>
<feColorMatrix type="matrix" values="0 0 0 0 0 0 0 0 0 0 0 0 0 0 0 0 0 0 0.25 0"/>
<feBlend mode="normal" in2="BackgroundImageFix" result="effect1_dropShadow_31_35"/>
<feBlend mode="normal" in="SourceGraphic" in2="effect1_dropShadow_31_35" result="shape"/>
</filter>
</defs>
</svg>
