<svg width="78" height="78" viewBox="0 0 78 78" fill="none" xmlns="http://www.w3.org/2000/svg">
<path d="M51 39.0001C51 42.1827 49.7357 45.2349 47.4853 47.4854C45.2349 49.7358 42.1826 51.0001 39 51.0001C35.8174 51.0001 32.7652 49.7358 30.5147 47.4854C28.2643 45.2349 27 42.1827 27 39.0001C27 38.3161 27.072 37.6481 27.196 37.0001H23V52.9881C23 54.1001 23.9 55.0001 25.012 55.0001H52.992C53.5249 54.999 54.0357 54.7866 54.4121 54.4094C54.7886 54.0322 55 53.521 55 52.9881V37.0001H50.804C50.928 37.6481 51 38.3161 51 39.0001V39.0001ZM39 47.0001C40.0508 46.9998 41.0913 46.7926 42.0621 46.3902C43.0328 45.9878 43.9148 45.3982 44.6577 44.655C45.4006 43.9117 45.9898 43.0294 46.3917 42.0585C46.7936 41.0875 47.0003 40.0469 47 38.9961C46.9997 37.9453 46.7925 36.9048 46.3901 35.934C45.9877 34.9633 45.3981 34.0813 44.6549 33.3384C43.9116 32.5955 43.0293 32.0063 42.0584 31.6044C41.0874 31.2026 40.0468 30.9958 38.996 30.9961C36.8737 30.9966 34.8386 31.8402 33.3383 33.3412C31.838 34.8423 30.9955 36.8778 30.996 39.0001C30.9965 41.1224 31.8401 43.1575 33.3412 44.6578C34.8422 46.1581 36.8777 47.0006 39 47.0001V47.0001ZM48.6 30.6001H53.396C53.7146 30.6001 54.0203 30.4738 54.246 30.2489C54.4716 30.0239 54.5989 29.7187 54.6 29.4001V24.6041C54.6 24.2848 54.4732 23.9785 54.2474 23.7527C54.0216 23.5269 53.7153 23.4001 53.396 23.4001H48.6C48.2807 23.4001 47.9744 23.5269 47.7486 23.7527C47.5229 23.9785 47.396 24.2848 47.396 24.6041V29.4001C47.4 30.0601 47.94 30.6001 48.6 30.6001V30.6001ZM39 0.600098C28.8157 0.600098 19.0485 4.6458 11.8471 11.8472C4.64571 19.0486 0.600006 28.8158 0.600006 39.0001C0.600006 49.1844 4.64571 58.9516 11.8471 66.153C19.0485 73.3544 28.8157 77.4001 39 77.4001C44.0428 77.4001 49.0362 76.4069 53.6951 74.4771C58.354 72.5473 62.5871 69.7188 66.1529 66.153C69.7187 62.5872 72.5472 58.354 74.477 53.6951C76.4068 49.0362 77.4 44.0429 77.4 39.0001C77.4 33.9573 76.4068 28.964 74.477 24.3051C72.5472 19.6462 69.7187 15.413 66.1529 11.8472C62.5871 8.28143 58.354 5.4529 53.6951 3.52312C49.0362 1.59334 44.0428 0.600098 39 0.600098V0.600098ZM59 54.5561C59 57.0001 57 59.0001 54.556 59.0001H23.444C21 59.0001 19 57.0001 19 54.5561V23.4441C19 21.0001 21 19.0001 23.444 19.0001H54.556C57 19.0001 59 21.0001 59 23.4441V54.5561V54.5561Z" fill="#2E6ECC"/>
</svg>
