<svg width="126" height="126" viewBox="0 0 126 126" fill="none" xmlns="http://www.w3.org/2000/svg">
<path d="M112.118 25.8969L64.8679 10.1469C63.6555 9.74221 62.3445 9.74221 61.1321 10.1469L14.0013 25.8575L13.9762 25.8654L13.8826 25.8969C13.7965 25.9255 13.7143 25.9599 13.6306 25.9919C13.4087 26.076 13.1921 26.1735 12.9819 26.2838C12.9239 26.3148 12.8677 26.3492 12.8107 26.3822C12.7127 26.4383 12.6162 26.4954 12.5222 26.5574C12.4681 26.5924 12.4159 26.6288 12.3633 26.6657C12.2665 26.7336 12.1721 26.8042 12.0803 26.8774C12.036 26.9128 11.9912 26.9472 11.9474 26.9837C11.8378 27.0762 11.7319 27.1725 11.6299 27.2726C11.6077 27.2942 11.5846 27.3139 11.563 27.3356C11.4409 27.4586 11.3244 27.5866 11.2135 27.7195C11.1825 27.7569 11.1544 27.7968 11.1239 27.8347C11.0476 27.9311 10.9733 28.0291 10.9034 28.13C10.8645 28.1851 10.8276 28.2417 10.7912 28.2988C10.7338 28.3874 10.6788 28.4778 10.6263 28.57C10.5904 28.6325 10.5545 28.6945 10.521 28.7585C10.4688 28.8574 10.4216 28.9593 10.3748 29.0617C10.3492 29.1183 10.3207 29.1734 10.2971 29.231C10.2336 29.3826 10.1775 29.5376 10.1273 29.6951C10.1066 29.7591 10.0898 29.8256 10.0716 29.8905C10.0409 29.9972 10.0132 30.1047 9.98845 30.2129C9.94795 30.3975 9.91625 30.5839 9.89346 30.7715C9.88559 30.8326 9.87673 30.8931 9.87131 30.9546C9.85458 31.1348 9.84375 31.3164 9.84375 31.5V70.875C9.84375 72.4414 10.466 73.9437 11.5737 75.0513C12.6813 76.159 14.1836 76.7812 15.75 76.7812C17.3164 76.7812 18.8187 76.159 19.9264 75.0513C21.034 73.9437 21.6562 72.4414 21.6562 70.875V39.6944L33.3285 43.5852C29.7239 50.4864 28.6421 58.4296 30.2697 66.0435C31.8973 73.6573 36.1323 80.4639 42.2435 85.2882C33.8769 89.1811 26.7736 95.3484 21.7448 103.086C21.3212 103.735 21.0296 104.462 20.8868 105.225C20.744 105.987 20.7528 106.77 20.9126 107.529C21.0724 108.288 21.3802 109.008 21.8183 109.648C22.2564 110.288 22.8163 110.836 23.466 111.259C24.1157 111.683 24.8425 111.975 25.6049 112.118C26.3673 112.26 27.1504 112.252 27.9094 112.092C28.6684 111.932 29.3885 111.624 30.0285 111.186C30.6686 110.748 31.2161 110.188 31.6398 109.538C35.038 104.317 39.6862 100.027 45.1625 97.0568C50.6389 94.0869 56.7702 92.5314 63 92.5314C69.2298 92.5314 75.3611 94.0869 80.8374 97.0568C86.3138 100.027 90.962 104.317 94.3602 109.538C95.2159 110.85 96.5577 111.769 98.0906 112.092C99.6234 112.414 101.222 112.115 102.534 111.259C103.846 110.404 104.764 109.062 105.087 107.529C105.41 105.996 105.11 104.398 104.255 103.086C99.226 95.3485 92.1229 89.1812 83.7565 85.2882C89.8677 80.4639 94.1027 73.6573 95.7303 66.0435C97.3579 58.4296 96.2761 50.4864 92.6715 43.5852L112.118 37.103C113.294 36.711 114.317 35.9589 115.041 34.9533C115.766 33.9477 116.156 32.7395 116.156 31.5C116.156 30.2604 115.766 29.0523 115.041 28.0467C114.317 27.0411 113.294 26.289 112.118 25.8969ZM63 21.9762L91.573 31.5L81.3807 34.8971L81.365 34.9025L63 41.0243L44.635 34.9025L44.6207 34.8976L34.4275 31.5L63 21.9762ZM84.6562 59.0625C84.6568 62.4261 83.8739 65.7437 82.3695 68.7521C80.8651 71.7606 78.6805 74.3773 75.9891 76.3947C73.2976 78.4122 70.1732 79.775 66.8635 80.375C63.5538 80.9751 60.1499 80.796 56.9215 79.8519C53.693 78.9078 50.7289 77.2246 48.264 74.9358C45.7992 72.647 43.9013 69.8156 42.721 66.6658C41.5406 63.5161 41.1101 60.1347 41.4637 56.7897C41.8173 53.4447 42.9452 50.228 44.7581 47.3947L61.1321 52.853C62.3446 53.2574 63.6554 53.2574 64.8679 52.853L81.2419 47.3947C83.4739 50.8767 84.659 54.9265 84.6562 59.0625Z" fill="#2E6ECC"/>
</svg>
