<svg width="470" height="528" viewBox="0 0 470 528" fill="none" xmlns="http://www.w3.org/2000/svg">
<g opacity="0.3" filter="url(#filter0_d_25_89)">
<path d="M43.1669 87.2766H426.866V345.273H43.1669V87.2766Z" fill="url(#paint0_linear_25_89)"/>
<path d="M419.012 95.1309V337.452H50.988V95.1309H419.012V95.1309ZM434.688 79.4554H35.3125V353.127H434.688V79.4554Z" fill="url(#paint1_linear_25_89)"/>
<path d="M236.897 60.5518C100.411 60.5518 101.509 186.754 101.509 188.751C101.509 270.49 107.766 385.943 140.481 431.371C153.461 449.377 178.522 450.375 178.522 450.375L235 450.308L291.478 450.375C291.478 450.375 316.572 449.377 329.519 431.371C362.234 385.943 368.491 270.49 368.491 188.751C368.458 186.754 373.383 60.5518 236.897 60.5518V60.5518Z" fill="#312D2D"/>
<path d="M236.897 60.5518C100.411 60.5518 101.509 186.754 101.509 188.751C101.509 270.49 107.766 385.943 140.481 431.371C153.461 449.377 178.522 450.375 178.522 450.375L235 450.308L291.478 450.375C291.478 450.375 316.572 449.377 329.519 431.371C362.234 385.943 368.491 270.49 368.491 188.751C368.458 186.754 373.383 60.5518 236.897 60.5518V60.5518Z" fill="url(#paint2_radial_25_89)"/>
<path d="M403.07 463.488V452.904C403.07 401.418 318.736 374.494 235.466 374.494H235C151.331 374.594 66.9297 398.856 66.9297 452.904V463.488H403.07Z" fill="url(#paint3_linear_25_89)"/>
<path d="M71.9219 463.488V452.904C71.9219 402.317 153.827 379.586 235 379.486H235.433C278.365 379.486 320.034 386.775 349.787 399.455C371.819 408.873 398.078 425.78 398.078 452.871V463.455H408.062V452.871C408.062 397.125 320.666 369.502 235.433 369.502H235C150.166 369.601 61.9375 393.73 61.9375 452.904V463.488H71.9219V463.488Z" fill="#3488C1"/>
<path d="M61.9375 452.871V463.455H170.434C173.03 390.968 184.346 370.234 184.346 370.234C127.934 382.548 64.4336 397.125 61.9375 452.871Z" fill="url(#paint4_linear_25_89)"/>
<path d="M286.952 370.267C286.952 370.267 298.234 391.001 300.864 463.488H409.36V452.904C406.864 397.125 343.364 382.548 286.952 370.267V370.267Z" fill="url(#paint5_linear_25_89)"/>
<path d="M149.966 463.488C150.066 447.047 151.897 412.767 163.678 374.727L152.429 377.456C141.713 414.664 139.982 447.213 139.949 463.488H149.966V463.488Z" fill="url(#paint6_linear_25_89)"/>
<path d="M330.051 463.488C330.018 447.213 328.287 414.664 317.571 377.456L306.322 374.727C318.103 412.767 319.934 447.047 320.034 463.488H330.051V463.488Z" fill="url(#paint7_linear_25_89)"/>
<path d="M235 358.286H204.781V391.5C204.781 406.51 217.095 418.691 232.271 418.691H237.762C252.939 418.691 265.253 406.51 265.253 391.5V358.286H235Z" fill="#EDC391"/>
<path d="M201.719 356.788L234.933 399.421C234.933 399.421 236.598 398.157 234.933 399.421L180.918 421.52L172.897 373.129L201.719 356.788Z" fill="url(#paint8_linear_25_89)"/>
<path d="M268.98 356.788L235.766 399.421C235.766 399.421 234.101 398.157 235.766 399.421L289.781 421.52L297.802 373.129L268.98 356.788Z" fill="url(#paint9_linear_25_89)"/>
<path d="M358.107 463.488L360.637 454.668L362.733 447.413L362.534 447.346L362.567 447.18L357.408 445.716L362.867 426.679C363.199 425.514 363.166 424.349 362.867 423.284C362.867 423.251 362.833 423.184 362.833 423.151C362.809 423.033 362.764 422.92 362.7 422.818C362.134 421.021 360.836 419.59 359.072 419.057L358.573 418.924H358.54L346.06 415.33L229.808 381.882C229.642 381.849 229.509 381.849 229.375 381.782C224.179 380.414 218.652 381.136 213.981 383.792C209.309 386.448 205.863 390.828 204.381 395.993L199.589 412.734C199.256 413.866 198.89 415.097 198.49 416.428L194.097 431.771L184.978 463.488H358.107V463.488Z" fill="url(#paint10_linear_25_89)"/>
<path d="M362.434 463.488L373.949 423.351C374.914 419.989 372.984 416.495 369.623 415.563L240.858 378.621C235.61 377.121 229.982 377.764 225.209 380.41C220.435 383.055 216.906 387.487 215.397 392.732L195.096 463.521L362.434 463.488V463.488Z" fill="#424242"/>
<path d="M368.258 463.488L371.719 451.407C372.884 447.346 370.455 443.086 366.328 441.922L228.144 402.317C213.068 397.99 210.438 410.138 206.212 424.882L195.129 463.488H368.258V463.488Z" fill="url(#paint11_linear_25_89)"/>
<path opacity="0.2" d="M236.098 389.038C236.697 389.038 237.363 389.104 238.062 389.271L362.035 424.882L361.003 428.476C321.764 417.526 246.881 396.459 231.406 391.334C232.204 390.236 233.769 389.038 236.098 389.038ZM236.098 377.955C221.055 377.955 213.534 396.493 225.715 401.052C239.127 406.044 368.591 442.055 368.591 442.055L373.849 423.683C374.881 420.156 373.217 416.561 370.155 415.696L240.891 378.554C239.227 378.155 237.629 377.955 236.098 377.955Z" fill="#424242"/>
<path d="M366.028 424.149L233.569 386.142C229.975 385.11 226.047 387.673 224.849 391.833L224.65 392.565C223.451 396.726 225.415 400.986 229.009 402.017L361.469 440.025C361.469 440.025 360.337 437.262 361.702 432.37C363.066 427.444 366.028 424.149 366.028 424.149V424.149Z" fill="url(#paint12_linear_25_89)"/>
<path d="M207.976 463.488L233.769 373.662L212.369 367.505L184.812 463.488H207.976Z" fill="url(#paint13_linear_25_89)"/>
<path d="M236.032 104.383C178.788 104.383 125.771 146.95 125.771 237.209C125.771 309.695 170.667 352.595 209.74 366.44C219.058 369.735 228.044 371.399 236.032 371.399C243.953 371.399 252.905 369.768 262.158 366.506C301.296 352.728 346.293 309.828 346.293 237.242C346.293 146.95 293.275 104.383 236.032 104.383V104.383Z" fill="#F9DDBD"/>
<path d="M249.544 277.512C249.178 277.379 248.845 277.279 248.479 277.246H225.215C224.849 277.279 224.516 277.379 224.15 277.512C222.054 278.378 220.889 280.541 221.887 282.87C222.886 285.2 227.512 291.723 236.83 291.723C246.149 291.723 250.775 285.2 251.807 282.87C252.805 280.541 251.641 278.344 249.544 277.512Z" fill="#DBA689"/>
<path d="M186.11 263.701C195.061 263.701 202.318 256.191 202.318 246.927C202.318 237.663 195.061 230.153 186.11 230.153C177.158 230.153 169.902 237.663 169.902 246.927C169.902 256.191 177.158 263.701 186.11 263.701Z" fill="#312D2D"/>
<path d="M287.584 263.701C296.536 263.701 303.792 256.191 303.792 246.927C303.792 237.663 296.536 230.153 287.584 230.153C278.633 230.153 271.376 237.663 271.376 246.927C271.376 256.191 278.633 263.701 287.584 263.701Z" fill="#312D2D"/>
<path d="M206.844 216.807C203.749 212.714 196.627 206.79 182.782 206.79C168.937 206.79 161.781 212.747 158.719 216.807C157.355 218.604 157.688 220.701 158.653 221.966C159.518 223.131 162.114 224.229 164.976 223.264C167.838 222.299 173.43 219.403 182.782 219.337C192.134 219.403 197.725 222.299 200.587 223.264C203.449 224.229 206.045 223.164 206.911 221.966C207.876 220.701 208.209 218.604 206.844 216.807V216.807Z" fill="#454140"/>
<path d="M315.008 216.807C311.913 212.714 304.791 206.79 290.946 206.79C277.101 206.79 269.945 212.747 266.883 216.807C265.519 218.604 265.852 220.701 266.817 221.966C267.682 223.131 270.278 224.229 273.14 223.264C276.002 222.299 281.594 219.403 290.946 219.337C300.298 219.403 305.889 222.299 308.751 223.264C311.613 224.229 314.209 223.164 315.075 221.966C316.007 220.701 316.339 218.604 315.008 216.807Z" fill="#454140"/>
<path d="M263.688 304.403C253.205 310.627 218.859 310.627 208.408 304.403C202.384 300.842 196.261 306.3 198.757 311.759C201.22 317.117 219.957 329.597 236.132 329.597C252.306 329.597 270.811 317.117 273.273 311.759C275.77 306.3 269.712 300.809 263.688 304.403Z" fill="#444444"/>
<path d="M334.611 227.158C334.378 223.197 334.211 222.798 328.986 221.134C324.893 219.836 302.528 218.005 285.687 218.937C284.489 219.004 283.324 219.07 282.226 219.17C266.95 220.468 248.612 226.625 234.834 226.958C228.976 227.091 204.847 220.768 187.774 219.436C186.676 219.37 185.577 219.27 184.446 219.237C167.572 218.371 145.107 220.335 141.014 221.666C135.789 223.364 135.622 223.763 135.422 227.723C135.19 231.651 135.855 235.045 138.95 236.077C143.177 237.475 143.21 242.733 146.039 257.843C148.602 271.621 154.759 282.504 181.217 284.401C182.349 284.468 183.414 284.535 184.479 284.535C207.876 284.867 215.93 269.458 218.592 264.333C223.551 254.814 221.987 241.702 235.1 241.668C248.179 241.635 246.948 254.515 251.973 264C254.669 269.092 262.524 284.568 285.721 284.235C286.852 284.235 288.017 284.168 289.215 284.069C315.64 282.005 321.764 271.089 324.227 257.31C326.956 242.168 326.989 236.876 331.183 235.478C334.211 234.48 334.844 231.118 334.611 227.158V227.158ZM199.622 277.878C195.562 279.775 190.137 280.74 184.412 280.74C172.465 280.707 159.219 276.514 154.426 268.06C147.637 256.013 145.873 231.651 154.526 226.559C158.32 224.329 171.133 222.798 184.379 223.364C198.124 223.963 212.335 226.825 217.461 233.548C225.981 244.63 212.469 271.821 199.622 277.878ZM315.774 267.561C311.014 276.081 297.669 280.374 285.654 280.408C279.996 280.441 274.638 279.509 270.644 277.645C257.764 271.655 244.119 244.564 252.506 233.415C257.598 226.625 271.876 223.696 285.654 223.031C298.867 222.398 311.647 223.863 315.407 226.059C324.127 231.118 322.496 255.48 315.774 267.561Z" fill="#212121" stroke="#212121" stroke-width="0.55" stroke-miterlimit="10"/>
<path d="M236.897 60.5518C100.411 60.5518 101.509 186.754 101.509 188.751C101.509 214.577 102.141 243.765 104.005 273.019L126.37 272.953C126.17 263.235 132.993 203.162 153.261 198.602C227.678 181.862 269.779 142.39 269.779 142.39C280.728 166.286 314.975 189.616 327.256 198.503C337.34 205.791 342.498 260.239 342.299 272.986H365.895C365.895 272.82 365.962 272.653 365.962 272.453C367.825 243.332 368.425 214.344 368.425 188.685C368.458 186.754 373.383 60.5518 236.897 60.5518V60.5518Z" fill="#312D2D"/>
<path d="M236.897 60.5518C100.411 60.5518 101.509 186.754 101.509 188.751C101.509 214.577 102.141 243.765 104.005 273.019L126.37 272.953C126.17 263.235 132.993 203.162 153.261 198.602C227.678 181.862 269.779 142.39 269.779 142.39C280.728 166.286 314.975 189.616 327.256 198.503C337.34 205.791 342.498 260.239 342.299 272.986H365.895C365.895 272.82 365.962 272.653 365.962 272.453C367.825 243.332 368.425 214.344 368.425 188.685C368.458 186.754 373.383 60.5518 236.897 60.5518V60.5518Z" fill="url(#paint14_radial_25_89)"/>
</g>
<defs>
<filter id="filter0_d_25_89" x="-20" y="-17" width="510" height="568" filterUnits="userSpaceOnUse" color-interpolation-filters="sRGB">
<feFlood flood-opacity="0" result="BackgroundImageFix"/>
<feColorMatrix in="SourceAlpha" type="matrix" values="0 0 0 0 0 0 0 0 0 0 0 0 0 0 0 0 0 0 127 0" result="hardAlpha"/>
<feOffset dy="3"/>
<feGaussianBlur stdDeviation="10"/>
<feComposite in2="hardAlpha" operator="out"/>
<feColorMatrix type="matrix" values="0 0 0 0 0 0 0 0 0 0 0 0 0 0 0 0 0 0 0.5 0"/>
<feBlend mode="normal" in2="BackgroundImageFix" result="effect1_dropShadow_25_89"/>
<feBlend mode="normal" in="SourceGraphic" in2="effect1_dropShadow_25_89" result="shape"/>
</filter>
<linearGradient id="paint0_linear_25_89" x1="234.997" y1="88.924" x2="234.997" y2="345.503" gradientUnits="userSpaceOnUse">
<stop stop-color="#26A69A"/>
<stop offset="1" stop-color="#00796B"/>
</linearGradient>
<linearGradient id="paint1_linear_25_89" x1="234.997" y1="79.4388" x2="234.997" y2="353.114" gradientUnits="userSpaceOnUse">
<stop stop-color="#8D6E63"/>
<stop offset="0.779" stop-color="#795548"/>
</linearGradient>
<radialGradient id="paint2_radial_25_89" cx="0" cy="0" r="1" gradientUnits="userSpaceOnUse" gradientTransform="translate(235 245.484) scale(158.192 188.265)">
<stop offset="0.794" stop-color="#454140" stop-opacity="0"/>
<stop offset="1" stop-color="#454140"/>
</radialGradient>
<linearGradient id="paint3_linear_25_89" x1="235" y1="415.952" x2="235" y2="460.859" gradientUnits="userSpaceOnUse">
<stop stop-color="#B3E5FC"/>
<stop offset="1" stop-color="#70AFE3"/>
</linearGradient>
<linearGradient id="paint4_linear_25_89" x1="123.142" y1="369.512" x2="123.142" y2="460.389" gradientUnits="userSpaceOnUse">
<stop stop-color="#651FFF"/>
<stop offset="0.705" stop-color="#5914F2"/>
<stop offset="1" stop-color="#530EEB"/>
</linearGradient>
<linearGradient id="paint5_linear_25_89" x1="348.156" y1="373.848" x2="348.156" y2="460.25" gradientUnits="userSpaceOnUse">
<stop stop-color="#651FFF"/>
<stop offset="0.705" stop-color="#5914F2"/>
<stop offset="1" stop-color="#530EEB"/>
</linearGradient>
<linearGradient id="paint6_linear_25_89" x1="151.8" y1="380.484" x2="151.8" y2="458.955" gradientUnits="userSpaceOnUse">
<stop stop-color="#D1C4E9" stop-opacity="0.2"/>
<stop offset="0.785" stop-color="#D1C4E9" stop-opacity="0.6"/>
</linearGradient>
<linearGradient id="paint7_linear_25_89" x1="318.2" y1="376.368" x2="318.2" y2="458.323" gradientUnits="userSpaceOnUse">
<stop stop-color="#D1C4E9" stop-opacity="0.2"/>
<stop offset="0.785" stop-color="#D1C4E9" stop-opacity="0.6"/>
</linearGradient>
<linearGradient id="paint8_linear_25_89" x1="202.847" y1="420.838" x2="205.633" y2="353.347" gradientUnits="userSpaceOnUse">
<stop stop-color="#E1F5FE"/>
<stop offset="1" stop-color="#81D4FA"/>
</linearGradient>
<linearGradient id="paint9_linear_25_89" x1="264.853" y1="423.397" x2="267.639" y2="355.906" gradientUnits="userSpaceOnUse">
<stop stop-color="#E1F5FE"/>
<stop offset="1" stop-color="#81D4FA"/>
</linearGradient>
<linearGradient id="paint10_linear_25_89" x1="285.421" y1="406.72" x2="264.344" y2="495.471" gradientUnits="userSpaceOnUse">
<stop offset="0.002" stop-color="#212121" stop-opacity="0.2"/>
<stop offset="1" stop-color="#212121" stop-opacity="0.6"/>
</linearGradient>
<linearGradient id="paint11_linear_25_89" x1="294.534" y1="419.56" x2="277.337" y2="477.246" gradientUnits="userSpaceOnUse">
<stop stop-color="#EF5350"/>
<stop offset="1" stop-color="#E53935"/>
</linearGradient>
<linearGradient id="paint12_linear_25_89" x1="224.762" y1="392.191" x2="363.74" y2="432.074" gradientUnits="userSpaceOnUse">
<stop offset="0.01" stop-color="#BDBDBD"/>
<stop offset="0.987" stop-color="#F5F5F5"/>
</linearGradient>
<linearGradient id="paint13_linear_25_89" x1="196.91" y1="457.184" x2="211.47" y2="411.423" gradientUnits="userSpaceOnUse">
<stop stop-color="#212121"/>
<stop offset="1" stop-color="#424242"/>
</linearGradient>
<radialGradient id="paint14_radial_25_89" cx="0" cy="0" r="1" gradientUnits="userSpaceOnUse" gradientTransform="translate(236.108 258.894) scale(165.701 201.078)">
<stop offset="0.794" stop-color="#454140" stop-opacity="0"/>
<stop offset="1" stop-color="#454140"/>
</radialGradient>
</defs>
</svg>
