<?xml version="1.0" encoding="UTF-8"?> <svg xmlns="http://www.w3.org/2000/svg" width="78" height="78" viewBox="0 0 320 320" fill="none"> <g clip-path="url(#clip0_414_186)"> <path d="M107.679 233.393L81.4286 109.643C80.3571 104.405 80.9821 100.655 83.3036 98.3929C85.625 96.131 88.6905 95.7143 92.5 97.1429L246.786 156.607C250.238 157.917 252.589 159.405 253.839 161.071C255.089 162.738 255.238 164.315 254.286 165.804C253.333 167.292 251.429 168.452 248.571 169.286L209.107 181.607L117.5 123.929C115 122.262 113.095 121.905 111.786 122.857C110.952 123.452 111.19 124.345 112.5 125.536L186.607 192.5L189.464 233.214C186.726 233.214 184.048 231.905 181.429 229.286L162.143 210.714L122.143 240.179C114.524 244.464 109.702 242.202 107.679 233.393ZM0 160C0 181.667 4.2262 202.381 12.6786 222.143C21.131 241.905 32.5 258.929 46.7857 273.214C61.0714 287.5 78.0952 298.869 97.8571 307.321C117.619 315.774 138.333 320 160 320C181.667 320 202.381 315.774 222.143 307.321C241.905 298.869 258.929 287.5 273.214 273.214C287.5 258.929 298.869 241.905 307.321 222.143C315.774 202.381 320 181.667 320 160C320 138.333 315.774 117.619 307.321 97.8571C298.869 78.0952 287.5 61.0714 273.214 46.7857C258.929 32.5 241.905 21.131 222.143 12.6786C202.381 4.22619 181.667 0 160 0C138.333 0 117.619 4.22619 97.8571 12.6786C78.0952 21.131 61.0714 32.5 46.7857 46.7857C32.5 61.0714 21.131 78.0952 12.6786 97.8571C4.2262 117.619 0 138.333 0 160Z" fill="#2E6ECC"></path> </g> <defs> <clipPath id="clip0_414_186"> <rect width="80" height="80" fill="white" transform="scale(4)"></rect> </clipPath> </defs> </svg> 