<svg width="78" height="78" viewBox="0 0 78 78" fill="none" xmlns="http://www.w3.org/2000/svg">
<path d="M39 0.600098C17.792 0.600098 0.600006 17.7921 0.600006 39.0001C0.600006 60.2081 17.792 77.4001 39 77.4001C60.208 77.4001 77.4 60.2081 77.4 39.0001C77.4 17.7921 60.208 0.600098 39 0.600098ZM53.768 43.9241C53.768 43.9241 57.164 47.2761 58 48.8321C58.024 48.8641 58.036 48.8961 58.044 48.9121C58.384 49.4841 58.464 49.9281 58.296 50.2601C58.016 50.8121 57.056 51.0841 56.728 51.1081H50.728C50.312 51.1081 49.44 51.0001 48.384 50.2721C47.572 49.7041 46.772 48.7721 45.992 47.8641C44.828 46.5121 43.82 45.3441 42.804 45.3441C42.675 45.3439 42.5467 45.3641 42.424 45.4041C41.656 45.6521 40.672 46.7481 40.672 49.6681C40.672 50.5801 39.952 51.1041 39.444 51.1041H36.696C35.76 51.1041 30.884 50.7761 26.564 46.2201C21.276 40.6401 16.516 29.4481 16.476 29.3441C16.176 28.6201 16.796 28.2321 17.472 28.2321H23.532C24.34 28.2321 24.604 28.7241 24.788 29.1601C25.004 29.6681 25.796 31.6881 27.096 33.9601C29.204 37.6641 30.496 39.1681 31.532 39.1681C31.7263 39.1658 31.9171 39.1164 32.088 39.0241C33.44 38.2721 33.188 33.4521 33.128 32.4521C33.128 32.2641 33.124 30.2961 32.432 29.3521C31.936 28.6681 31.092 28.4081 30.58 28.3121C30.7872 28.0261 31.0603 27.7943 31.376 27.6361C32.304 27.1721 33.976 27.1041 35.636 27.1041H36.56C38.36 27.1281 38.824 27.2441 39.476 27.4081C40.796 27.7241 40.824 28.5761 40.708 31.4921C40.672 32.3201 40.636 33.2561 40.636 34.3601C40.636 34.6001 40.624 34.8561 40.624 35.1281C40.584 36.6121 40.536 38.2961 41.584 38.9881C41.7207 39.0738 41.8787 39.1195 42.04 39.1201C42.404 39.1201 43.5 39.1201 46.468 34.0281C47.3833 32.3891 48.1788 30.686 48.848 28.9321C48.908 28.8281 49.084 28.5081 49.292 28.3841C49.4455 28.3058 49.6157 28.266 49.788 28.2681H56.912C57.688 28.2681 58.22 28.3841 58.32 28.6841C58.496 29.1601 58.288 30.6121 55.036 35.0161L53.584 36.9321C50.636 40.7961 50.636 40.9921 53.768 43.9241V43.9241Z" fill="#2E6ECC"/>
</svg>
