<svg width="78" height="78" viewBox="0 0 78 78" fill="none" xmlns="http://www.w3.org/2000/svg">
<path d="M45.412 38.3321L36.428 34.1401C35.644 33.7761 35 34.1841 35 35.0521V42.9481C35 43.8161 35.644 44.2241 36.428 43.8601L45.408 39.6681C46.196 39.3001 46.196 38.7001 45.412 38.3321ZM39 0.600098C17.792 0.600098 0.600006 17.7921 0.600006 39.0001C0.600006 60.2081 17.792 77.4001 39 77.4001C60.208 77.4001 77.4 60.2081 77.4 39.0001C77.4 17.7921 60.208 0.600098 39 0.600098ZM39 54.6001C19.344 54.6001 19 52.8281 19 39.0001C19 25.1721 19.344 23.4001 39 23.4001C58.656 23.4001 59 25.1721 59 39.0001C59 52.8281 58.656 54.6001 39 54.6001Z" fill="#2E6ECC"/>
</svg>
